<svg xmlns="http://www.w3.org/2000/svg" viewBox="0 0 200 200" fill="none">
  <defs>
    <linearGradient id="hash_flow" x1="100" y1="40" x2="100" y2="160" gradientUnits="userSpaceOnUse">
      <stop offset="0%" stop-color="#FFFFFF"/>
      <stop offset="100%" stop-color="#BFDFFF"/>
    </linearGradient>
  </defs>

  <g fill="#2F80ED">
    <rect x="50" y="20" width="100" height="30" rx="6" />
    <rect x="50" y="70" width="100" height="30" rx="6" />
    <path d="M50 126C50 122.686 52.6863 120 56 120H144C147.314 120 150 122.686 150 126V154C150 157.314 147.314 160 144 160H56C52.6863 160 50 157.314 50 154V126Z" />
  </g>

  <g fill="#FFFFFF" opacity="0.6">
    <rect x="65" y="32" width="40" height="6" rx="2"/>
    <rect x="65" y="82" width="30" height="6" rx="2"/>
  </g>

  <g fill="url(#hash_flow)">
    <path d="M96 45V58H104V45H96Z" /> <path d="M100 58L108 66L100 74L92 66L100 58Z" /> <path d="M97 74V85H103V74H97Z" /> <path d="M96 95V108H104V95H96Z" /> <path d="M100 108L108 116L100 124L92 116L100 108Z" /> <path d="M97 124V135H103V124H97Z" /> <circle cx="100" cy="145" r="5" fill="#FFFFFF"/>
  </g>

</svg>